<?xml version="1.0" encoding="UTF-8"?>
<svg id="Ebene_2" data-name="Ebene 2" xmlns="http://www.w3.org/2000/svg" viewBox="0 0 55.59 8.83">
  <g id="Ebene_1-2" data-name="Ebene 1">
    <g>
      <g>
        <path d="M11.3,7.94h-1.12V2.43h1.12v5.51Z"/>
        <path d="M12.02,4.46c0-1.22.98-2.22,2.21-2.22.66,0,1.26.29,1.66.74.41-.46,1-.74,1.66-.74,1.22,0,2.22,1,2.22,2.22v3.48h-1.12v-3.48c0-.61-.49-1.1-1.1-1.1s-1.09.49-1.09,1.1v3.48h-1.12v-3.48c0-.61-.49-1.1-1.1-1.1s-1.09.49-1.09,1.1v3.48h-1.12v-3.48Z"/>
        <path d="M20.48,4.46c0-1.22.98-2.22,2.21-2.22.66,0,1.26.29,1.66.74.41-.46,1-.74,1.66-.74,1.22,0,2.22,1,2.22,2.22v3.48h-1.12v-3.48c0-.61-.49-1.1-1.1-1.1s-1.09.49-1.09,1.1v3.48h-1.12v-3.48c0-.61-.49-1.1-1.1-1.1s-1.09.49-1.09,1.1v3.48h-1.12v-3.48Z"/>
        <path d="M31.78,7.95c-1.57,0-2.84-1.27-2.84-2.84s1.27-2.84,2.84-2.84,2.84,1.27,2.84,2.84-1.27,2.84-2.84,2.84ZM31.78,3.38c-.96,0-1.73.77-1.73,1.73s.77,1.73,1.73,1.73,1.73-.77,1.73-1.73-.77-1.73-1.73-1.73Z"/>
        <path d="M35.97,7.1c-1.1-1.1-1.1-2.91,0-4.02s2.91-1.12,4.03,0l-.79.79c-1.61-1.62-4.05.83-2.45,2.45.67.67,1.77.67,2.45,0l.79.78c-1.12,1.12-2.91,1.12-4.03,0Z"/>
        <path d="M42.76,7.95c-1.57,0-2.84-1.27-2.84-2.84s1.27-2.84,2.84-2.84,2.84,1.27,2.84,2.84-1.27,2.84-2.84,2.84ZM42.76,3.38c-.96,0-1.73.77-1.73,1.73s.77,1.73,1.73,1.73,1.73-.77,1.73-1.73-.77-1.73-1.73-1.73Z"/>
        <path d="M46.05,4.75c0-1.37,1.1-2.48,2.48-2.48h1.14v1.12h-1.14c-.76,0-1.37.61-1.37,1.37v3.21h-1.12v-3.21Z"/>
        <path d="M50.78,5.59c.25.72,1.04,1.42,1.85,1.42.61,0,1.24-.36,1.57-.81h1.18c-.43,1.09-1.5,1.87-2.75,1.87-1.64,0-2.96-1.33-2.96-2.96s1.32-2.97,2.96-2.97,2.96,1.33,2.96,2.97c0,.2,0,.3-.05.49M54.47,4.59c-.22-.81-.96-1.41-1.84-1.41s-1.63.6-1.85,1.41h3.7Z"/>
      </g>
      <circle cx="10.73" cy=".95" r=".8"/>
    </g>
    <path d="M1.45,5.58l.03-2.51c0-.08.04-.17.11-.21l2.09-1.19V0L.11,2.05c-.07.04-.11.12-.11.2v4.16c.29-.17,1.14-.66,1.45-.84Z"/>
    <polygon points="1.97 5.48 3.67 6.47 3.67 4.5 1.97 3.52 1.97 5.48"/>
    <polygon points="5.83 5.48 5.83 3.52 4.12 4.5 4.12 6.47 5.83 5.48"/>
    <polygon points="2.19 3.12 3.9 4.11 5.6 3.12 3.9 2.14 2.19 3.12"/>
    <path d="M1.67,5.97l-.95.55-.45.26,3.51,2.03c.07.04.16.04.23,0l3.51-2.03c-.29-.17-1.09-.63-1.4-.81.07.04.01.01,0,0l-2.03,1.18c-.07.04-.29.04-.36,0"/>
    <path d="M7.68,2.05L4.12,0v1.65l2.07,1.21c.07.04.2.18.2.26l.02,2.49c.31.18,1.09.63,1.38.8V2.25c0-.08-.04-.16-.11-.2Z"/>
  </g>
</svg>